<?xml version="1.0" encoding="UTF-8"?>
<svg id="Layer_1" data-name="Layer 1" xmlns="http://www.w3.org/2000/svg" viewBox="0 0 48 48">
  <defs>
    <style>
      .cls-1 {
        fill: #424c63;
      }

      .cls-1, .cls-2, .cls-3, .cls-4 {
        stroke-width: 0px;
      }

      .cls-2 {
        fill: #ff8200;
      }

      .cls-3 {
        fill: #303949;
      }

      .cls-4 {
        fill: #ff6500;
      }
    </style>
  </defs>
  <circle class="cls-2" cx="24" cy="24" r="22"/>
  <path class="cls-4" d="M34.069,4.441c4.247,3.843,6.931,9.38,6.931,15.559,0,11.598-9.402,21-21,21-6.178,0-11.716-2.684-15.559-6.931,3.654,7.084,11.038,11.931,19.559,11.931,12.15,0,22-9.85,22-22,0-8.521-4.847-15.904-11.931-19.559Z"/>
  <path class="cls-1" d="M29.982,28.567l-4.567-4.567,14.832-14.832c-.45-.492-.922-.964-1.414-1.414l-14.832,14.832-4.567-4.567c3.977-4.558,3.945-10.291,3.52-15.992-.672.032-1.336.097-1.991.187.402,5.39.427,10.436-2.944,14.39L9.168,7.753c-.492.45-.964.922-1.414,1.414l8.85,8.85c-3.954,3.371-8.999,3.346-14.39,2.944-.091.655-.156,1.318-.187,1.991,1.44.108,2.883.193,4.308.193,4.218,0,8.283-.731,11.691-3.706l4.561,4.561-14.832,14.832c.45.492.922.964,1.414,1.414l14.832-14.832,4.567,4.567c-3.977,4.558-3.945,10.291-3.52,15.992.672-.032,1.336-.097,1.991-.187-.402-5.39-.427-10.436,2.944-14.39l8.85,8.85c.492-.45.964-.922,1.414-1.414l-8.85-8.85c3.954-3.37,8.999-3.346,14.39-2.944.091-.655.156-1.319.187-1.991-5.701-.425-11.434-.458-15.992,3.52Z"/>
  <path class="cls-3" d="M37.759,8.827l1.074-1.074c.492.45.964.922,1.414,1.414l-1.469,1.469c-.311-.622-.65-1.225-1.018-1.81ZM26.912,39.812c-.661.231-1.336.429-2.025.593-.072,1.831.021,3.701.161,5.569.672-.032,1.336-.097,1.991-.187-.153-2.056-.25-4.061-.126-5.975ZM8.827,37.759l-1.074,1.074c.45.492.922.964,1.414,1.414l1.469-1.469c-.622-.311-1.225-.65-1.81-1.018ZM40.405,24.887c-.165.689-.363,1.364-.593,2.025,1.914-.124,3.919-.027,5.974.126.091-.655.156-1.319.187-1.991-1.867-.139-3.737-.233-5.568-.161ZM34.108,35.523l4.724,4.724c.492-.45.964-.922,1.414-1.414l-4.724-4.724c-.449.494-.92.965-1.414,1.414Z"/>
</svg>